<svg width="137" height="73" viewBox="0 0 137 73" fill="none" xmlns="http://www.w3.org/2000/svg">
<path d="M134.818 2.94373V71.9437H1.18555L134.818 2.94373Z" fill="#CBF6FF" stroke="#972323" stroke-width="2" stroke-dasharray="5 5"/>
<path d="M1.18555 71.4437L135.686 1.94373" stroke="#972323" stroke-width="3"/>
<path d="M98.1855 61.9437L44.1855 61.9437" stroke="#972323"/>
<path d="M33.1855 62.4437L44.4355 66.3408L44.4355 58.5466L33.1855 62.4437Z" fill="#972323"/>
<path d="M104.778 59.4957C104.778 58.6104 104.959 57.8264 105.322 57.1437C105.695 56.4611 106.196 55.9331 106.826 55.5597C107.466 55.1757 108.175 54.9837 108.954 54.9837C109.53 54.9837 110.095 55.1117 110.65 55.3677C111.215 55.6131 111.663 55.9437 111.994 56.3597V52.1037H113.834V63.9437H111.994V62.6157C111.695 63.0424 111.279 63.3944 110.746 63.6717C110.223 63.9491 109.62 64.0877 108.938 64.0877C108.17 64.0877 107.466 63.8957 106.826 63.5117C106.196 63.1171 105.695 62.5731 105.322 61.8797C104.959 61.1757 104.778 60.3811 104.778 59.4957ZM111.994 59.5277C111.994 58.9197 111.866 58.3917 111.61 57.9437C111.364 57.4957 111.039 57.1544 110.634 56.9197C110.228 56.6851 109.791 56.5677 109.322 56.5677C108.852 56.5677 108.415 56.6851 108.01 56.9197C107.604 57.1437 107.274 57.4797 107.018 57.9277C106.772 58.3651 106.65 58.8877 106.65 59.4957C106.65 60.1037 106.772 60.6371 107.018 61.0957C107.274 61.5544 107.604 61.9064 108.01 62.1517C108.426 62.3864 108.863 62.5037 109.322 62.5037C109.791 62.5037 110.228 62.3864 110.634 62.1517C111.039 61.9171 111.364 61.5757 111.61 61.1277C111.866 60.6691 111.994 60.1357 111.994 59.5277Z" fill="#0049C5"/>
<path d="M116.416 66.3937C117.056 65.8404 117.559 65.3871 117.926 65.0337C118.299 64.6737 118.609 64.3004 118.856 63.9137C119.102 63.5271 119.226 63.1404 119.226 62.7537C119.226 62.3537 119.129 62.0404 118.936 61.8137C118.749 61.5871 118.452 61.4737 118.046 61.4737C117.652 61.4737 117.346 61.6004 117.126 61.8537C116.912 62.1004 116.799 62.4337 116.786 62.8537H115.686C115.706 62.0937 115.932 61.5137 116.366 61.1137C116.806 60.7071 117.362 60.5037 118.036 60.5037C118.762 60.5037 119.329 60.7037 119.736 61.1037C120.149 61.5037 120.356 62.0371 120.356 62.7037C120.356 63.1837 120.232 63.6471 119.986 64.0937C119.746 64.5337 119.456 64.9304 119.116 65.2837C118.782 65.6304 118.356 66.0337 117.836 66.4937L117.386 66.8937H120.556V67.8437H115.696V67.0137L116.416 66.3937Z" fill="#0049C5"/>
</svg>
