<svg width="270" height="142" viewBox="0 0 270 142" fill="none" xmlns="http://www.w3.org/2000/svg">
<path d="M134.633 2V71H1L134.633 2Z" fill="#CBF6FF" stroke="#972323" stroke-width="2"/>
<path d="M135.507 140V71H269.14L135.507 140Z" fill="#DFFF9B" stroke="#972323" stroke-width="2"/>
<path d="M135.507 2V71H269.14L135.507 2Z" fill="#CBF6FF" stroke="#972323" stroke-width="2"/>
<path d="M134.633 140V71H1L134.633 140Z" fill="#DFFF9B" stroke="#972323" stroke-width="2"/>
<path d="M120 60H223" stroke="#972323"/>
<path d="M147 79L147 23" stroke="#972323"/>
<path d="M234 60.5L222.75 64.3971L222.75 56.6029L234 60.5Z" fill="#972323"/>
<path d="M95 60L41 60" stroke="#972323"/>
<path d="M30 60.5L41.25 64.3971L41.25 56.6029L30 60.5Z" fill="#972323"/>
<path d="M147 13.5L150.897 24L143.103 24L147 13.5Z" fill="#972323"/>
<path d="M147 98.5L147 123.5" stroke="#972323"/>
<path d="M147 131L143.103 120.5L150.897 120.5L147 131Z" fill="#972323"/>
<path d="M101.592 57.552C101.592 56.6667 101.773 55.8827 102.136 55.2C102.509 54.5173 103.011 53.9893 103.64 53.616C104.28 53.232 104.989 53.04 105.768 53.04C106.344 53.04 106.909 53.168 107.464 53.424C108.029 53.6693 108.477 54 108.808 54.416V50.16H110.648V62H108.808V60.672C108.509 61.0987 108.093 61.4507 107.56 61.728C107.037 62.0053 106.435 62.144 105.752 62.144C104.984 62.144 104.28 61.952 103.64 61.568C103.011 61.1733 102.509 60.6293 102.136 59.936C101.773 59.232 101.592 58.4373 101.592 57.552ZM108.808 57.584C108.808 56.976 108.68 56.448 108.424 56C108.179 55.552 107.853 55.2107 107.448 54.976C107.043 54.7413 106.605 54.624 106.136 54.624C105.667 54.624 105.229 54.7413 104.824 54.976C104.419 55.2 104.088 55.536 103.832 55.984C103.587 56.4213 103.464 56.944 103.464 57.552C103.464 58.16 103.587 58.6933 103.832 59.152C104.088 59.6107 104.419 59.9627 104.824 60.208C105.24 60.4427 105.677 60.56 106.136 60.56C106.605 60.56 107.043 60.4427 107.448 60.208C107.853 59.9733 108.179 59.632 108.424 59.184C108.68 58.7253 108.808 58.192 108.808 57.584Z" fill="#0049C5"/>
<path d="M113.23 64.45C113.87 63.8967 114.373 63.4433 114.74 63.09C115.113 62.73 115.423 62.3567 115.67 61.97C115.917 61.5833 116.04 61.1967 116.04 60.81C116.04 60.41 115.943 60.0967 115.75 59.87C115.563 59.6433 115.267 59.53 114.86 59.53C114.467 59.53 114.16 59.6567 113.94 59.91C113.727 60.1567 113.613 60.49 113.6 60.91H112.5C112.52 60.15 112.747 59.57 113.18 59.17C113.62 58.7633 114.177 58.56 114.85 58.56C115.577 58.56 116.143 58.76 116.55 59.16C116.963 59.56 117.17 60.0933 117.17 60.76C117.17 61.24 117.047 61.7033 116.8 62.15C116.56 62.59 116.27 62.9867 115.93 63.34C115.597 63.6867 115.17 64.09 114.65 64.55L114.2 64.95H117.37V65.9H112.51V65.07L113.23 64.45Z" fill="#0049C5"/>
<path d="M138.592 90.552C138.592 89.6667 138.773 88.8827 139.136 88.2C139.509 87.5173 140.011 86.9893 140.64 86.616C141.28 86.232 141.989 86.04 142.768 86.04C143.344 86.04 143.909 86.168 144.464 86.424C145.029 86.6693 145.477 87 145.808 87.416V83.16H147.648V95H145.808V93.672C145.509 94.0987 145.093 94.4507 144.56 94.728C144.037 95.0053 143.435 95.144 142.752 95.144C141.984 95.144 141.28 94.952 140.64 94.568C140.011 94.1733 139.509 93.6293 139.136 92.936C138.773 92.232 138.592 91.4373 138.592 90.552ZM145.808 90.584C145.808 89.976 145.68 89.448 145.424 89C145.179 88.552 144.853 88.2107 144.448 87.976C144.043 87.7413 143.605 87.624 143.136 87.624C142.667 87.624 142.229 87.7413 141.824 87.976C141.419 88.2 141.088 88.536 140.832 88.984C140.587 89.4213 140.464 89.944 140.464 90.552C140.464 91.16 140.587 91.6933 140.832 92.152C141.088 92.6107 141.419 92.9627 141.824 93.208C142.24 93.4427 142.677 93.56 143.136 93.56C143.605 93.56 144.043 93.4427 144.448 93.208C144.853 92.9733 145.179 92.632 145.424 92.184C145.68 91.7253 145.808 91.192 145.808 90.584Z" fill="#0049C5"/>
<path d="M149.45 92.75V91.71H151.53V99H150.38V92.75H149.45Z" fill="#0049C5"/>
</svg>
