<svg width="137" height="73" viewBox="0 0 137 73" fill="none" xmlns="http://www.w3.org/2000/svg">
<path d="M1.69229 70.9437V1.94373H135.325L1.69229 70.9437Z" fill="#DFFF9B" stroke="#972323" stroke-width="2" stroke-dasharray="5 5"/>
<path d="M1.18555 71.4437L135.686 1.94373" stroke="#972323" stroke-width="3"/>
<path d="M18.1855 25.4437L18.1855 50.4437" stroke="#972323"/>
<path d="M18.1855 57.9437L14.2884 47.4437L22.0827 47.4437L18.1855 57.9437Z" fill="#972323"/>
<path d="M9.77755 17.4957C9.77755 16.6104 9.95888 15.8264 10.3215 15.1437C10.6949 14.4611 11.1962 13.9331 11.8255 13.5597C12.4655 13.1757 13.1749 12.9837 13.9535 12.9837C14.5295 12.9837 15.0949 13.1117 15.6495 13.3677C16.2149 13.6131 16.6629 13.9437 16.9935 14.3597V10.1037H18.8335V21.9437H16.9935V20.6157C16.6949 21.0424 16.2789 21.3944 15.7455 21.6717C15.2229 21.9491 14.6202 22.0877 13.9375 22.0877C13.1695 22.0877 12.4655 21.8957 11.8255 21.5117C11.1962 21.1171 10.6949 20.5731 10.3215 19.8797C9.95888 19.1757 9.77755 18.3811 9.77755 17.4957ZM16.9935 17.5277C16.9935 16.9197 16.8655 16.3917 16.6095 15.9437C16.3642 15.4957 16.0389 15.1544 15.6335 14.9197C15.2282 14.6851 14.7909 14.5677 14.3215 14.5677C13.8522 14.5677 13.4149 14.6851 13.0095 14.9197C12.6042 15.1437 12.2735 15.4797 12.0175 15.9277C11.7722 16.3651 11.6495 16.8877 11.6495 17.4957C11.6495 18.1037 11.7722 18.6371 12.0175 19.0957C12.2735 19.5544 12.6042 19.9064 13.0095 20.1517C13.4255 20.3864 13.8629 20.5037 14.3215 20.5037C14.7909 20.5037 15.2282 20.3864 15.6335 20.1517C16.0389 19.9171 16.3642 19.5757 16.6095 19.1277C16.8655 18.6691 16.9935 18.1357 16.9935 17.5277Z" fill="#0049C5"/>
<path d="M20.6355 19.6937V18.6537H22.7155V25.9437H21.5655V19.6937H20.6355Z" fill="#0049C5"/>
</svg>
